<svg t="1729757526776" class="icon" viewBox="0 0 1024 1024" version="1.1" xmlns="http://www.w3.org/2000/svg" p-id="17872" width="256" height="256"><path d="M828.25216 481.23904s-119.49568 25.46688-152.57088 34.36032c-32.75776 8.88832-73.36448-55.5008-84.25472-57.82528-6.96832 20.18304-29.47584 79.44704-42.92608 119.6544 20.82304-0.64 128.86016 32.11264 132.7872 51.1744 4.48512 19.3024 54.94272 228.33664 54.94272 228.33664s21.38112 44.93312-39.32672 61.34784c-60.78976 16.41984-63.50848-33.55648-63.50848-33.55648s-42.44992-160.33792-46.21312-170.03008c-3.52256-9.69216-82.65216-25.94816-100.75136-21.06368-18.26304 4.9664-57.344 141.83936-95.9488 151.12704-49.57696 12.01664-194.78016-76.16512-194.78016-76.16512s-57.344-14.17216-45.64992-67.9936c11.9296-53.42208 67.59424-38.84544 67.59424-38.84544s102.8352 56.54528 114.688 49.89952c12.01664-6.72768 18.82112-45.73184 36.36224-83.5328 0.72192-14.2592 41.088-127.58528 41.088-127.58528s22.34368-75.4432 13.45536-80.16896c-12.25728-6.48704-25.06752 7.36768-31.7952 18.90304-6.72768 11.44832-33.39776 58.624-78.00832 120.05376-39.64416 54.69696-110.36672 3.92192-80.9728-47.17568 24.42752-42.52672 89.46176-164.10112 136.23296-187.008 47.09376-23.0656 128.3072-35.88096 197.42208-19.70176 69.43744 15.85664 118.13376 94.50496 131.74784 104.91904 13.29152 10.0096 106.83904-20.26496 106.83904-20.26496s53.25824-18.49856 66.47296 30.11584c13.29664 48.93184-42.92608 61.0304-42.92608 61.0304z m-218.80832-200.38144c-49.01376 13.29152-98.90816-15.13984-112.04096-63.67232-13.056-48.29184 15.53408-98.26816 64.54784-111.5648 48.93696-13.21472 98.9952 15.45728 112.04608 63.74912 13.21472 48.5376-15.69792 98.19136-64.55296 111.488z" fill="currentColor" p-id="17873"></path></svg>