<svg t="1729757968280" class="icon" viewBox="0 0 1024 1024" version="1.1" xmlns="http://www.w3.org/2000/svg" p-id="38184" width="256" height="256"><path d="M0 941.611997A82.388003 82.388003 0 0 0 82.388003 1024h858.980243A82.388003 82.388003 0 0 0 1023.756249 941.611997V363.433468H0z m694.69174-429.490121h73.125446a36.562723 36.562723 0 0 1 0 73.125446h-73.125446a36.562723 36.562723 0 0 1 0-73.125446z m-219.376339 0h73.125446a36.562723 36.562723 0 0 1 0 73.125446h-73.125446a36.562723 36.562723 0 0 1 0-73.125446z m0 221.813854h73.125446a36.562723 36.562723 0 0 1 0 73.125446h-73.125446a36.562723 36.562723 0 0 1 0-73.125446z m-219.376339-221.813854h73.125446a36.562723 36.562723 0 0 1 0 73.125446h-73.125446a36.562723 36.562723 0 0 1 0-73.125446z m0 221.813854h73.125446a36.562723 36.562723 0 0 1 0 73.125446h-73.125446a36.562723 36.562723 0 0 1 0-73.125446zM1023.756249 155.757201a82.388003 82.388003 0 0 0-82.388003-82.388003H804.37991V41.194001a40.95025 40.95025 0 0 0-82.388003 0v32.175197H301.764342V41.194001a40.95025 40.95025 0 0 0-82.388003 0v32.175197H82.388003A82.388003 82.388003 0 0 0 0 155.757201v128.213282h1023.756249z" fill="currentColor" p-id="38185"></path></svg>