<svg t="1729757656587" class="icon" viewBox="0 0 1024 1024" version="1.1" xmlns="http://www.w3.org/2000/svg" p-id="25774" width="256" height="256"><path d="M811.093333 436.053333c-7.253333 0-13.653333 2.986667-19.2 6.826667a286.378667 286.378667 0 0 0-75.52-138.666667c-0.853333-1.28-2.133333-2.133333-2.986666-2.986666 0.426667-2.986667 1.706667-5.546667 1.706666-8.533334V167.68c0-45.226667-36.693333-82.346667-81.493333-82.346667h-243.2c-44.373333 0-80.64 37.12-80.64 82.346667v125.013333c0 2.986667 0.853333 5.546667 1.28 8.533334l-2.56 2.56C254.293333 358.826667 224.426667 433.066667 224.426667 512c0 80.64 32 155.733333 87.04 210.773333-0.853333 2.56-1.706667 5.546667-1.706667 8.533334v125.013333c0 45.226667 36.266667 82.346667 80.64 82.346667h243.2c44.8 0 81.493333-37.12 81.493333-82.346667v-125.013333c0-2.986667-1.28-5.546667-1.706666-8.533334l2.56-2.56c37.973333-38.826667 64-86.613333 75.946666-139.093333 5.546667 3.84 11.946667 6.826667 19.2 6.826667 17.493333 0 32-14.506667 32-32v-87.893334c0-17.493333-14.506667-32-32-32z m-321.706666 128l-42.666667-43.52c-12.373333-12.8-11.946667-33.28 0.426667-45.226666 12.8-12.373333 33.28-12.373333 45.226666 0.426666l20.053334 20.48 62.293333-64.426666c12.373333-12.373333 32.426667-12.8 45.226667-0.426667 12.8 12.373333 12.8 32.426667 0.426666 45.226667l-85.333333 87.466666v0.426667c-0.426667 0-0.426667 0.426667-0.426667 0.426667-2.133333 2.133333-4.693333 2.986667-6.826666 4.266666-1.28 0.853333-2.133333 1.706667-3.413334 2.56-3.84 1.28-8.106667 2.133333-11.946666 2.133334-4.266667 0-8.533333-0.853333-12.373334-2.133334a23.68 23.68 0 0 0-3.413333-2.56c-2.133333-1.28-4.693333-2.133333-6.826667-4.266666v-0.426667c-0.426667 0-0.426667 0-0.426666-0.426667zM373.76 167.68c0-9.813333 7.68-18.346667 16.64-18.346667h243.2c9.386667 0 17.493333 8.533333 17.493333 18.346667v85.76c-3.84-2.133333-7.68-3.84-11.52-5.546667-2.986667-1.706667-5.973333-2.986667-8.96-4.266666-36.693333-17.066667-76.8-26.88-118.186666-26.88-41.813333 0-81.92 9.386667-118.613334 26.88-2.986667 1.28-5.973333 2.56-8.96 4.266666-3.84 1.706667-7.68 3.413333-11.093333 5.546667V167.68z m277.333333 688.64c0 9.813333-8.106667 18.346667-17.493333 18.346667h-243.2c-8.96 0-16.64-8.533333-16.64-18.346667v-85.76c2.56 1.706667 5.546667 2.986667 8.533333 4.266667 5.12 2.56 10.24 5.12 15.786667 7.68 5.973333 2.56 11.946667 4.693333 17.92 7.253333 7.253333 2.56 14.08 4.693333 21.333333 6.826667l10.666667 2.56c20.906667 4.693333 42.24 8.106667 64.426667 8.106666 21.76 0 43.093333-3.413333 64-8.106666l10.666666-2.56c7.253333-2.133333 14.08-4.266667 21.333334-6.826667 5.973333-2.56 11.946667-4.693333 17.92-7.253333 5.546667-2.56 10.666667-5.12 15.786666-7.68 2.986667-1.706667 5.973333-2.56 8.96-4.266667v85.76z" fill="currentColor" p-id="25775"></path></svg>